<svg width="815" height="1024" viewBox="0 0 815 1024" fill="none" xmlns="http://www.w3.org/2000/svg">
<g clip-path="url(#clip0_249_5192)">
<rect width="815" height="1024" fill="#6B006B" fill-opacity="0.06"/>
<path d="M644.438 157.446C651.249 175.076 661.345 191.134 667.371 208.99C672.071 222.916 675.174 237.022 678.157 251.338C680.51 262.632 681.222 274.632 681.222 286.193" stroke="#FFDB58" stroke-width="22" stroke-linecap="round" stroke-linejoin="round"/>
<path d="M595.762 208.672C595.762 228.359 594.893 248.174 597.806 267.709C599.63 279.94 601.893 291.401 601.893 303.813C601.893 305.145 602.55 323.843 605.98 316.982" stroke="#FFDB58" stroke-width="22" stroke-linecap="round" stroke-linejoin="round"/>
<path d="M644.805 488.645C662.796 506.283 682.3 522.256 700.209 539.961C706.058 545.745 711.726 553.695 718.374 558.127" stroke="#FFDB58" stroke-width="22" stroke-linecap="round" stroke-linejoin="round"/>
<path d="M575.324 954.584C589.809 969.508 611.347 986.791 617.786 1007.72C618.753 1010.86 618.188 1010.86 620.283 1007.72" stroke="#FFDB58" stroke-width="22" stroke-linecap="round" stroke-linejoin="round"/>
<path d="M655.023 995.456C668.548 1008.59 684.687 1018.99 697.939 1032.24" stroke="#FFDB58" stroke-width="22" stroke-linecap="round" stroke-linejoin="round"/>
<path d="M68.5134 934.149C61.7799 922.285 51.8141 901.451 35.5888 901.451C23.9301 901.451 12.9726 905.894 2.2101 910.08C-10.184 914.9 -22.3914 920.775 -23.3348 935.398C-24.478 953.116 -19.5617 966.273 -8.00788 979.789C0.828603 990.126 33.7141 1007.98 45.5797 991.369C51.0042 983.775 55.8775 976.842 58.409 967.982C59.1844 965.267 60.7026 961.192 62.3826 958.672" stroke="#FFDB58" stroke-width="22" stroke-linecap="round" stroke-linejoin="round"/>
<path d="M283.09 276.111C299.761 268.966 317.015 263.44 334.18 257.719" stroke="#FFDB58" stroke-width="22" stroke-linecap="round" stroke-linejoin="round"/>
<path d="M470.899 713.057C483.293 715.992 520.46 729.881 511.813 704.514C505.621 686.353 491.072 669.635 470.786 668.883C452.273 668.198 425.986 677.099 413.799 691.026C388.35 720.111 424.81 737.883 449.543 745.653C479.009 754.91 519.848 765.385 547.444 745.878C578.437 723.969 571.901 682.972 547.106 658.767C516.778 629.161 474.324 635.165 435.38 633.702C427.575 633.409 409.26 635.772 404.133 628.082" stroke="#FFDB58" stroke-width="22" stroke-linecap="round" stroke-linejoin="round"/>
<path d="M711.658 783.87C736.077 777.305 762.248 771.837 787.641 771.168C798.764 770.876 771.962 790.381 770.106 791.738C754.245 803.337 737.562 814.192 720.875 824.559C716.551 827.245 704.131 832.503 708.961 834.113C724.76 839.379 749.157 835.452 765.61 836.023C774.03 836.316 786.924 834.831 795.172 838.496C796.665 839.16 780.414 847.236 779.323 847.713C774.107 849.993 744.958 857.287 756.394 864.91C763.625 869.731 783.547 874.715 773.479 883.007C760.236 893.913 792.636 904.661 798.207 907.51C811.008 914.057 803.788 913.972 808.772 921.448" stroke="#FFDB58" stroke-width="22" stroke-linecap="round" stroke-linejoin="round"/>
<path d="M1.51081 535.016C31.3741 542.821 62.747 546.823 92.1057 556.259C101.034 559.129 90.9743 563.151 86.9352 565.364C61.7474 579.165 34.1175 587.197 7.13084 596.611C-4.73352 600.75 -16.6516 604.863 -28.2753 609.65C-29.1469 610.008 -35.7699 611.512 -31.535 612.01C-10.3037 614.508 10.9363 613.621 32.3086 614.37C37.368 614.548 45.8209 614.191 51.0795 615.944C51.4247 616.059 36.4198 619.069 36.2426 619.091C23.2778 620.75 10.2616 622.027 -2.76041 623.138C-6.58508 623.464 -21.2061 622.387 -25.0157 625.61C-25.1213 625.7 -6.47959 631.159 -6.13243 631.231C11.0579 634.747 29.5912 635.159 46.2462 640.897C64.4272 647.161 7.85904 643.665 -11.1905 646.292C-26.0978 648.348 18.2765 652.716 32.5334 657.532C52.7159 664.351 28.6651 670.125 19.3825 673.606C12.1975 676.3 -21.6927 684.889 -0.287598 694.962C8 698.862 17.1812 701.342 26.0141 703.616C26.2259 703.671 47.016 707.633 43.099 709.461C38.9464 711.399 4.45814 720.377 7.80524 722.05C15.6044 725.95 29.1413 722.558 35.4558 729.244C37.0408 730.922 29.8358 730.982 29.8358 733.29" stroke="#FFDB58" stroke-width="22" stroke-linecap="round" stroke-linejoin="round"/>
<path d="M307.017 338.764C289.235 344.268 271.244 349.491 264.53 368.887C256.877 390.996 272.184 402.669 293.754 399.123C306.215 397.074 331.082 386.445 323.203 369.561C318.406 359.283 296.731 356.913 287.235 359.445C281.201 361.054 275.603 367.796 279.816 373.158C287.404 382.815 306.213 373.431 313.312 367.538C314.223 366.782 319.442 361.166 315.335 360.345C308.204 358.918 299.318 368.851 295.215 373.158C292.332 376.185 283.215 393.429 290.832 383.274" stroke="#FFDB58" stroke-width="22" stroke-linecap="round" stroke-linejoin="round"/>
<path d="M-0.510319 93.9549C16.5098 90.74 50.1302 94.7979 46.2483 69.4516C42.7581 46.6623 25.5285 28.5101 1.62529 29.5494C-21.5858 30.5586 -39.0444 53.8441 -45.2457 74.3972C-53.8985 103.075 -32.8973 117.843 -6.57995 121.043C18.6341 124.11 73.0113 129.663 84.0149 96.6525C93.3078 68.7738 65.951 47.8091 46.8103 33.0338C36.5444 25.1093 24.9931 17.6108 16.125 8.08088C10.9135 2.4805 9.14613 -1.88697 1.51289 -3.15918" stroke="#FFDB58" stroke-width="22" stroke-linecap="round" stroke-linejoin="round"/>
<path d="M491.09 952.779C453.843 961.013 416.412 968.023 379.005 975.459C362.942 978.653 346.391 981.308 330.686 986.087C320.111 989.306 335.629 988.357 336.822 988.388C350.544 988.749 481.01 993.432 481.01 1005.04C481.01 1008.69 463.473 1011.28 462.165 1011.51C427.704 1017.54 389.599 1016.81 356.982 1030.79C350.123 1033.73 357.57 1035.53 360.927 1036.49C378.909 1041.63 397.552 1042.56 416.148 1043.06C443.815 1043.81 471.523 1043.5 499.198 1043.5C502.459 1043.5 518.382 1041.24 521.769 1043.5C524.216 1045.13 516.05 1044.88 513.223 1045.69C501.38 1049.07 489.619 1051.92 477.504 1054.24C472.102 1055.27 455.966 1055.62 451.318 1060.26C446.884 1064.7 463.023 1064.97 469.177 1066.18C486.061 1069.49 502.963 1071.03 520.125 1071.99C520.291 1072 547.788 1072.49 543.682 1074.62C537.486 1077.82 505.288 1086.69 515.414 1098.5C523.02 1107.38 559.327 1104.54 548.722 1109.46C535.725 1115.48 516.052 1113.29 504.677 1122.39C502.211 1124.36 530.933 1129.55 533.821 1129.84C543.722 1130.83 551.079 1132.58 560.117 1136.19" stroke="#FFDB58" stroke-width="22" stroke-linecap="round" stroke-linejoin="round"/>
<path d="M506.867 441.985C503.478 436.807 457.915 372.627 452.084 375.808C446.365 378.927 446.356 406.224 446.168 410.869C445.667 423.22 446.023 435.569 446.716 447.902C447.065 454.124 450.145 466.986 447.373 472.992C445.615 476.801 441.803 466.715 439.156 463.46C430.364 452.652 420.98 442.335 411.874 431.796C405.034 423.88 398.318 415.949 392.042 407.582C391.512 406.874 385.052 396.098 384.592 402.542C383.287 420.81 385.201 439.834 387.002 457.982C389.196 480.086 389.615 506.339 397.192 527.556C399.381 533.686 396.12 514.555 394.891 508.163C393.144 499.077 389.157 477.016 379.771 471.897C373.095 468.255 361.079 533.913 360.926 538.622C360.214 560.458 354.802 507.774 345.258 512.546C338.519 515.915 340.968 532.47 345.148 536.65" stroke="#FFDB58" stroke-width="22" stroke-linecap="round" stroke-linejoin="round"/>
<path d="M769.165 159.963C758.491 158.151 747.842 156.205 737.172 154.375C720.512 151.519 739.885 156.491 742.321 157.115C753.772 160.047 765.34 163.166 776.944 165.442C786.482 167.312 780.56 162.155 776.615 158.868C761.389 146.179 738.899 142.816 724.681 129.614C720.358 125.599 736.014 126.05 741.883 125.45C751.06 124.511 762.855 124.878 771.246 120.301C774.544 118.502 775.361 115.996 772.233 113.507C771.698 113.083 764.333 109.61 765.878 109.563C771.935 109.38 809.154 114.598 805.979 105.18C801.88 93.0263 787.85 83.7142 777.492 77.7891C752.929 63.7388 725.894 54.7258 699.262 45.5768C680.077 38.986 680.9 38.6942 688.305 23.8828" stroke="#FFDB58" stroke-width="22" stroke-linecap="round" stroke-linejoin="round"/>
<path d="M727.75 1025.75C753.568 1045.3 788.85 1065.21 806.637 1093.24C808.494 1096.17 812.317 1106.61 814.526 1106.61" stroke="#FFDB58" stroke-width="22" stroke-linecap="round" stroke-linejoin="round"/>
<path d="M147.93 690.48C152.03 673.325 155.869 656.082 160.201 638.984C160.349 638.4 161.484 629.476 164.145 633.944C170.81 645.131 175.764 657.749 181.457 669.443C188.687 684.294 196.82 699.943 206.657 713.269C210.308 718.216 210.52 699.8 210.82 698.368C214.06 682.933 217.725 666.765 222.434 651.693C224.891 643.833 222.735 668.404 225.283 676.236C226.575 680.209 231.758 691.384 237.116 691.575C242.287 691.76 247.721 678.842 249.607 675.579C254.502 667.106 257.514 657.792 261.878 649.064C262.245 648.329 265.085 658.664 265.603 660.02C267.533 665.076 273.205 687.461 281.6 686.316C287.549 685.505 294.582 671.883 297.377 667.69C303.228 658.914 305.614 643.238 312.716 636.135C315.242 633.609 310.519 642.945 309.758 646.434C308.541 652.01 307.58 657.609 308.553 663.307C311.336 679.608 316.28 673.484 327.398 666.813" stroke="#FFDB58" stroke-width="22" stroke-linecap="round" stroke-linejoin="round"/>
<circle cx="164.438" cy="897.446" r="31" fill="#FFDB58"/>
<ellipse cx="511.438" cy="220.446" rx="31" ry="29" fill="#FFDB58"/>
<path d="M407.664 133.017C419.414 128.87 434.827 125.826 445.214 118.516C449.71 115.353 441.201 112.712 439.566 112.106C413.002 102.251 386.477 92.7029 360.499 81.2724C350.591 76.9131 337.941 72.9829 329.207 66.3137C325.321 63.3461 338.67 63.4733 343.556 63.2609C358.19 62.6246 372.873 63.0037 387.516 62.9556C391.558 62.9424 413.37 65.5011 416.594 60.6661C422.253 52.1764 370.952 29.7707 366.833 28.0012C359.516 24.8574 357.945 24.4674 351.111 22.1245C349.314 21.5083 345.104 21.2825 345.998 19.606C347.802 16.2228 359.742 15.2157 363.17 14.2636C379.674 9.67901 368.767 3.6522 357.751 -0.160854C349.335 -3.07417 340.926 -4.85027 332.184 -6.34276C324.412 -7.66975 343.007 -5.74082 343.098 -5.7322" stroke="#400040" stroke-width="22" stroke-linecap="round" stroke-linejoin="round"/>
<path d="M323.863 135.765C336.453 146.851 346.412 159.687 358.207 171.482" stroke="#400040" stroke-width="22" stroke-linecap="round" stroke-linejoin="round"/>
<path d="M167.258 87.6832C185.174 59.5584 203.713 32.0373 223.582 5.25781" stroke="#400040" stroke-width="22" stroke-linecap="round" stroke-linejoin="round"/>
<path d="M685.165 326.717C677.844 344.496 674.517 363.068 670.053 381.667C669.754 382.915 668.68 394.782 668.68 389.91" stroke="#400040" stroke-width="22" stroke-linecap="round" stroke-linejoin="round"/>
<path d="M531.301 319.848C532.625 339.268 538.003 358.211 542.215 377.164C542.352 377.785 543.665 388.566 543.665 384.414" stroke="#400040" stroke-width="22" stroke-linecap="round" stroke-linejoin="round"/>
<path d="M723.629 395.404C746.684 374.21 769.84 351.083 797.201 335.264C799.598 333.879 800.031 331.789 801.933 330.838" stroke="#400040" stroke-width="22" stroke-linecap="round" stroke-linejoin="round"/>
<path d="M672.047 890.217C690.211 908.617 706.911 929.334 730.372 941.064" stroke="#400040" stroke-width="22" stroke-linecap="round" stroke-linejoin="round"/>
<path d="M248.814 546.247C238.64 518.956 232.057 491.144 226.132 462.664C225.912 461.608 224.067 443.487 221.562 441.893C219.096 440.324 211.64 495.46 211.094 499.222C211.065 499.422 207.206 513.953 206.856 513.429C201.697 505.689 201.528 491.515 199.462 482.771C195.995 468.098 191.048 453.598 184.922 439.816C179.654 427.963 173.455 450.633 171.878 454.522C167.286 465.848 164.507 476.359 163.237 488.421C162.551 494.937 162.244 494.622 161.991 488.171C161.444 474.236 157.9 460.133 153.766 446.878C150.932 437.793 146.541 426.731 140.057 440.564C133.045 455.523 128.762 471.808 124.686 487.756C122.725 495.431 121.742 482.505 121.363 480.86C118.33 467.718 115.152 454.265 107.903 442.724C107.002 441.289 100.758 431.551 100.758 432.588" stroke="#400040" stroke-width="22" stroke-linecap="round" stroke-linejoin="round"/>
<path d="M136.648 280.045C146.103 293.467 156.126 306.407 165.894 319.593C167.922 322.33 169.995 324.751 171.045 327.901" stroke="#400040" stroke-width="22" stroke-linecap="round" stroke-linejoin="round"/>
<path d="M473.143 851.332C453.471 844.246 434.831 836.351 417.56 824.413C415.885 823.256 408.732 815.958 408.836 822.087C409.2 843.549 422.604 857.265 436.586 871.605C439.78 874.881 433.637 871.568 432.681 871.19C420.644 866.431 409.103 860.932 397.869 854.49C386.661 848.062 375.783 840.441 363.887 835.297C357.923 832.718 362.74 839.472 363.97 842.027C365.69 845.598 385.78 872.591 383.246 873.765C376.672 876.811 365.892 872.759 359.65 871.273C344.971 867.778 330.867 862.669 316.446 858.312C297.355 852.543 326.945 875.314 331.235 878.086C332.613 878.976 350.48 890.216 343.033 890.216" stroke="#400040" stroke-width="22" stroke-linecap="round" stroke-linejoin="round"/>
<path d="M614.046 558.688C588.859 560.977 563.465 560.984 538.318 563.699C526.666 564.957 539.565 566.785 543.794 567.69C562.343 571.658 581.525 571.548 600.126 575.207C602.792 575.731 592.206 580.217 591.681 580.404C580.016 584.553 566.609 586.696 556.137 593.582C549.969 597.637 572.118 598.698 573.398 598.779C582.111 599.331 590.892 599.422 599.569 600.449C601.85 600.72 605.763 600.815 602.167 603.234C595.744 607.555 588.571 610.751 581.751 614.37C580.651 614.953 572.965 617.774 576.461 619.938C594.288 630.974 617.593 633.706 637.062 640.866C639.502 641.763 660.603 648.119 655.855 653.998C650.556 660.558 640.889 661.082 633.396 662.721C631.279 663.184 615.39 667.17 623.095 672.141C625.443 673.656 646.432 677.187 646.296 677.802C645.496 681.401 629.266 684.689 625.925 686.061C622.305 687.549 617.905 689.584 619.986 694.043C622.109 698.591 625.262 703.343 629.081 706.525" stroke="#400040" stroke-width="22" stroke-linecap="round" stroke-linejoin="round"/>
<circle cx="600.938" cy="822.946" r="32.5" fill="#400040"/>
<circle cx="837.438" cy="1042.45" r="29" fill="#400040"/>
<circle cx="257.938" cy="814.946" r="24.5" fill="#400040"/>
<circle cx="762.938" cy="453.946" r="24.5" fill="#400040"/>
<path d="M609.13 67.8885C605.916 71.6873 578.76 108.903 569.59 103.663C566.146 101.695 595.839 47.383 598.371 40.4523C605.583 20.7142 577.407 41.8966 571.338 44.8905C565.606 47.7186 533.347 60.0772 533.816 59.55C541.225 51.2148 555.084 42.7131 558.965 31.8449C559.937 29.1239 525.274 37.9004 520.635 38.8384C505.811 41.8367 510.918 34.1985 516.063 23.91C523.294 9.44705 524.936 0.366556 519.559 -14.4199" stroke="#FFDB58" stroke-width="22" stroke-linecap="round" stroke-linejoin="round"/>
<path d="M122.543 140.514C157.123 140.514 191.829 139.783 226.37 141.724C243.532 142.688 231.347 145.14 223.68 147.238C214.972 149.621 158.017 163.475 162.352 175.481C165.658 184.636 179.16 185.148 186.83 186.375C193.014 187.364 198.305 188.09 204.448 188.661C206.651 188.866 211.62 187.333 211.038 189.468C209.051 196.755 171.245 206.399 188.712 216.77C198.375 222.507 210.301 223.716 220.99 226.588C230.258 229.078 214.503 231.218 212.517 231.698C195.232 235.88 174.006 237.023 158.049 245.147C151.719 248.37 171.194 250.978 178.222 252.006C179.019 252.123 203.783 253.91 200.01 259.134C198.981 260.559 196.505 262.588 198.934 263.976C201.72 265.568 209.525 266.565 207.272 268.818" stroke="#FFDB58" stroke-width="22" stroke-linecap="round" stroke-linejoin="round"/>
<path d="M432.409 217.98C432.221 230.952 429.988 243.806 429.988 256.714" stroke="#FFDB58" stroke-width="22" stroke-linecap="round" stroke-linejoin="round"/>
<path d="M346.052 1096.96C320.795 1092.19 295.002 1093.32 269.412 1092.85C261.164 1092.7 252.946 1092.33 244.723 1091.67C241.613 1091.43 234.096 1091.92 231.276 1089.62C226.594 1085.79 250.177 1071.4 251.557 1070.66C270.278 1060.63 291.178 1054.69 309.422 1043.84C310.324 1043.3 312.921 1042.63 312.031 1042.07C310.227 1040.95 302.966 1041.38 301.376 1041.27C281.141 1039.85 260.86 1040.15 240.608 1039.03C230.645 1038.47 220.686 1037.83 210.775 1036.64C210.17 1036.56 195.513 1035.65 198.651 1032.96C209.282 1023.87 225.983 1021.52 238.808 1017.2C238.929 1017.16 243.709 1015.83 243.474 1014.45C243.158 1012.59 235.473 1011.44 234.987 1011.32C219.416 1007.63 203.254 1007.42 187.702 1003.87C185.556 1003.37 185.624 1002.77 187.555 1001.81C193.749 998.711 200.54 996.716 207.028 994.349C210.503 993.082 232.919 987.379 228.19 980.866C225.017 976.495 216.422 974.238 211.363 973.04C209.882 972.689 209.589 972.649 211.29 971.901C215.367 970.107 219.548 968.628 223.855 967.492C226.114 966.897 229.634 966.629 231.46 964.921C234.835 961.763 219.883 955.073 219.74 955.001C210.962 950.592 201.8 947.257 192.258 944.934C190.389 944.479 184.057 943.186 181.457 943.097C175.51 942.893 183.231 943.515 180.722 944.199" stroke="#FFDB58" stroke-width="22" stroke-linecap="round" stroke-linejoin="round"/>
<path d="M158.236 811.273C147.308 797.439 137.922 783.091 128.586 768.177C127.986 767.217 122.062 756.339 119.806 758.22C114.834 762.363 113.055 773.146 111.649 778.941C108.957 790.039 108.384 803.672 102.391 813.661C99.1627 819.041 96.411 810.643 95.0428 808.187C89.4012 798.057 82.8391 789.676 74.0274 782.101C71.7723 780.162 69.1607 776.981 66.8999 780.044C61.9598 786.737 57.0664 793.429 51.616 799.736C47.5886 804.396 41.5665 810.651 34.8258 810.869C29.6227 811.036 27.0223 804.384 25.604 800.471C23.788 795.461 21.5776 778.895 13.1858 784.489C5.00444 789.943 -1.11509 804.58 -12.6792 800.692C-18.3242 798.793 -20.3183 791.436 -24.2891 787.465" stroke="#FFDB58" stroke-width="22" stroke-linecap="round" stroke-linejoin="round"/>
<path d="M309.855 759.559C322.92 755.652 335.234 750.63 347.141 743.933C350.375 742.113 355.309 739.983 357.425 736.809" stroke="#FFDB58" stroke-width="22" stroke-linecap="round" stroke-linejoin="round"/>
<path d="M720.266 609.022C744.691 598.387 769.44 588.934 794.972 581.274C795.788 581.029 812.034 574.435 804.818 580.241C784.662 596.458 760.62 606.493 740.371 622.242C738.38 623.791 735.86 626.382 740.027 626.855C751.691 628.181 764.347 626.038 775.899 624.583C786.363 623.265 796.694 621.405 807.09 619.763C813.386 618.769 795.513 625.134 789.532 627.337C778.087 631.554 770.085 634.442 758.548 639.042C748.004 643.246 734.201 647.336 724.879 654.328C717.893 659.567 757.737 661.96 760.338 662.039C766.891 662.239 773.73 662.216 780.306 662.039C782.204 661.988 791.909 660.323 793.939 661.902C794.935 662.677 791.751 663.191 790.565 663.623C786.654 665.045 782.812 666.295 779.48 668.925C756.126 687.35 803.354 694.224 814.044 695.227C822.704 696.039 820.317 695.139 831.808 695.777" stroke="#FFDB58" stroke-width="22" stroke-linecap="round" stroke-linejoin="round"/>
<circle cx="38.9375" cy="211.946" r="28.5" fill="#FFDB58"/>
<circle cx="569.938" cy="442.946" r="25.5" fill="#FFDB58"/>
<path d="M808.039 225.948C815.151 231.536 822.129 235.469 827.045 242.842" stroke="#FFDB58" stroke-width="22" stroke-linecap="round" stroke-linejoin="round"/>
<path d="M644.438 157.446C651.249 175.076 661.345 191.134 667.371 208.99C672.071 222.916 675.174 237.022 678.157 251.338C680.51 262.632 681.222 274.632 681.222 286.193" stroke="#952B95" stroke-width="22" stroke-linecap="round" stroke-linejoin="round"/>
<path d="M595.762 208.672C595.762 228.359 594.893 248.174 597.806 267.709C599.63 279.94 601.893 291.401 601.893 303.813C601.893 305.145 602.55 323.843 605.98 316.982" stroke="#952B95" stroke-width="22" stroke-linecap="round" stroke-linejoin="round"/>
<path d="M644.805 488.645C662.796 506.283 682.3 522.256 700.209 539.961C706.058 545.745 711.726 553.695 718.374 558.127" stroke="#952B95" stroke-width="22" stroke-linecap="round" stroke-linejoin="round"/>
<path d="M575.324 954.584C589.809 969.508 611.347 986.791 617.786 1007.72C618.753 1010.86 618.188 1010.86 620.283 1007.72" stroke="#952B95" stroke-width="22" stroke-linecap="round" stroke-linejoin="round"/>
<path d="M655.023 995.456C668.548 1008.59 684.687 1018.99 697.939 1032.24" stroke="#952B95" stroke-width="22" stroke-linecap="round" stroke-linejoin="round"/>
<path d="M470.899 713.057C483.293 715.992 520.46 729.881 511.813 704.514C505.621 686.353 491.072 669.635 470.786 668.883C452.273 668.198 425.986 677.099 413.799 691.026C388.35 720.111 424.81 737.883 449.543 745.653C479.009 754.91 519.848 765.385 547.444 745.878C578.437 723.969 571.901 682.972 547.106 658.767C516.778 629.161 474.324 635.165 435.38 633.702C427.575 633.409 409.26 635.772 404.133 628.082" stroke="#952B95" stroke-width="22" stroke-linecap="round" stroke-linejoin="round"/>
<path d="M711.658 783.87C736.077 777.305 762.248 771.837 787.641 771.168C798.764 770.876 771.962 790.381 770.106 791.738C754.245 803.337 737.562 814.192 720.875 824.559C716.551 827.245 704.131 832.503 708.961 834.113C724.76 839.379 749.157 835.452 765.61 836.023C774.03 836.316 786.924 834.831 795.172 838.496C796.665 839.16 780.414 847.236 779.323 847.713C774.107 849.993 744.958 857.287 756.394 864.91C763.625 869.731 783.547 874.715 773.479 883.007C760.236 893.913 792.636 904.661 798.207 907.51C811.008 914.057 803.788 913.972 808.772 921.448" stroke="#952B95" stroke-width="22" stroke-linecap="round" stroke-linejoin="round"/>
<path d="M491.09 952.779C453.843 961.013 416.412 968.023 379.005 975.459C362.942 978.653 346.391 981.308 330.686 986.087C320.111 989.306 335.629 988.357 336.822 988.388C350.544 988.749 481.01 993.432 481.01 1005.04C481.01 1008.69 463.473 1011.28 462.165 1011.51C427.704 1017.54 389.599 1016.81 356.982 1030.79C350.123 1033.73 357.57 1035.53 360.927 1036.49C378.909 1041.63 397.552 1042.56 416.148 1043.06C443.815 1043.81 471.523 1043.5 499.198 1043.5C502.459 1043.5 518.382 1041.24 521.769 1043.5C524.216 1045.13 516.05 1044.88 513.223 1045.69C501.38 1049.07 489.619 1051.92 477.504 1054.24C472.102 1055.27 455.966 1055.62 451.318 1060.26C446.884 1064.7 463.023 1064.97 469.177 1066.18C486.061 1069.49 502.963 1071.03 520.125 1071.99C520.291 1072 547.788 1072.49 543.682 1074.62C537.486 1077.82 505.288 1086.69 515.414 1098.5C523.02 1107.38 559.327 1104.54 548.722 1109.46C535.725 1115.48 516.052 1113.29 504.677 1122.39C502.211 1124.36 530.933 1129.55 533.821 1129.84C543.722 1130.83 551.079 1132.58 560.117 1136.19" stroke="white" stroke-width="22" stroke-linecap="round" stroke-linejoin="round"/>
<path d="M506.867 441.985C503.478 436.807 457.915 372.627 452.084 375.808C446.365 378.927 446.356 406.224 446.168 410.869C445.667 423.22 446.023 435.569 446.716 447.902C447.065 454.124 450.145 466.986 447.373 472.992C445.615 476.801 441.803 466.715 439.156 463.46C430.364 452.652 420.98 442.335 411.874 431.796C405.034 423.88 398.318 415.949 392.042 407.582C391.512 406.874 385.052 396.098 384.592 402.542C383.287 420.81 385.201 439.834 387.002 457.982C389.196 480.086 389.615 506.339 397.192 527.556C399.381 533.686 396.12 514.555 394.891 508.163C393.144 499.077 389.157 477.016 379.771 471.897C373.095 468.255 361.079 533.913 360.926 538.622C360.214 560.458 354.802 507.774 345.258 512.546C338.519 515.915 340.968 532.47 345.148 536.65" stroke="white" stroke-width="22" stroke-linecap="round" stroke-linejoin="round"/>
<path d="M769.165 159.963C758.491 158.151 747.842 156.205 737.172 154.375C720.512 151.519 739.885 156.491 742.321 157.115C753.772 160.047 765.34 163.166 776.944 165.442C786.482 167.312 780.56 162.155 776.615 158.868C761.389 146.179 738.899 142.816 724.681 129.614C720.358 125.599 736.014 126.05 741.883 125.45C751.06 124.511 762.855 124.878 771.246 120.301C774.544 118.502 775.361 115.996 772.233 113.507C771.698 113.083 764.333 109.61 765.878 109.563C771.935 109.38 809.154 114.598 805.979 105.18C801.88 93.0263 787.85 83.7142 777.492 77.7891C752.929 63.7388 725.894 54.7258 699.262 45.5768C680.077 38.986 680.9 38.6942 688.305 23.8828" stroke="white" stroke-width="22" stroke-linecap="round" stroke-linejoin="round"/>
<path d="M727.75 1025.75C753.568 1045.3 788.85 1065.21 806.637 1093.24C808.494 1096.17 812.317 1106.61 814.526 1106.61" stroke="white" stroke-width="22" stroke-linecap="round" stroke-linejoin="round"/>
<ellipse cx="511.438" cy="220.446" rx="31" ry="29" fill="white"/>
<path d="M407.664 133.017C419.414 128.87 434.827 125.826 445.214 118.516C449.71 115.353 441.201 112.712 439.566 112.106C413.002 102.251 386.477 92.7029 360.499 81.2724C350.591 76.9131 337.941 72.9829 329.207 66.3137C325.321 63.3461 338.67 63.4733 343.556 63.2609C358.19 62.6246 372.873 63.0037 387.516 62.9556C391.558 62.9424 413.37 65.5011 416.594 60.6661C422.253 52.1764 370.952 29.7707 366.833 28.0012C359.516 24.8574 357.945 24.4674 351.111 22.1245C349.314 21.5083 345.104 21.2825 345.998 19.606C347.802 16.2228 359.742 15.2157 363.17 14.2636C379.674 9.67901 368.767 3.6522 357.751 -0.160854C349.335 -3.07417 340.926 -4.85027 332.184 -6.34276C324.412 -7.66975 343.007 -5.74082 343.098 -5.7322" stroke="#FFDB58" stroke-width="22" stroke-linecap="round" stroke-linejoin="round"/>
<path d="M323.863 135.765C336.453 146.851 346.412 159.687 358.207 171.482" stroke="#FFDB58" stroke-width="22" stroke-linecap="round" stroke-linejoin="round"/>
<path d="M685.165 326.717C677.844 344.496 674.517 363.068 670.053 381.667C669.754 382.915 668.68 394.782 668.68 389.91" stroke="#FFDB58" stroke-width="22" stroke-linecap="round" stroke-linejoin="round"/>
<path d="M531.301 319.848C532.625 339.268 538.003 358.211 542.215 377.164C542.352 377.785 543.665 388.566 543.665 384.414" stroke="#FFDB58" stroke-width="22" stroke-linecap="round" stroke-linejoin="round"/>
<path d="M723.629 395.404C746.684 374.21 769.84 351.083 797.201 335.264C799.598 333.879 800.031 331.789 801.933 330.838" stroke="#FFDB58" stroke-width="22" stroke-linecap="round" stroke-linejoin="round"/>
<path d="M672.047 890.217C690.211 908.617 706.911 929.334 730.372 941.064" stroke="#FFDB58" stroke-width="22" stroke-linecap="round" stroke-linejoin="round"/>
<path d="M473.143 851.332C453.471 844.246 434.831 836.351 417.56 824.413C415.885 823.256 408.732 815.958 408.836 822.087C409.2 843.549 422.604 857.265 436.586 871.605C439.78 874.881 433.637 871.568 432.681 871.19C420.644 866.431 409.103 860.932 397.869 854.49C386.661 848.062 375.783 840.441 363.887 835.297C357.923 832.718 362.74 839.472 363.97 842.027C365.69 845.598 385.78 872.591 383.246 873.765C376.672 876.811 365.892 872.759 359.65 871.273C344.971 867.778 330.867 862.669 316.446 858.312C297.355 852.543 326.945 875.314 331.235 878.086C332.613 878.976 350.48 890.216 343.033 890.216" stroke="#FFDB58" stroke-width="22" stroke-linecap="round" stroke-linejoin="round"/>
<path d="M614.046 558.688C588.859 560.977 563.465 560.984 538.318 563.699C526.666 564.957 539.565 566.785 543.794 567.69C562.343 571.658 581.525 571.548 600.126 575.207C602.792 575.731 592.206 580.217 591.681 580.404C580.016 584.553 566.609 586.696 556.137 593.582C549.969 597.637 572.118 598.698 573.398 598.779C582.111 599.331 590.892 599.422 599.569 600.449C601.85 600.72 605.763 600.815 602.167 603.234C595.744 607.555 588.571 610.751 581.751 614.37C580.651 614.953 572.965 617.774 576.461 619.938C594.288 630.974 617.593 633.706 637.062 640.866C639.502 641.763 660.603 648.119 655.855 653.998C650.556 660.558 640.889 661.082 633.396 662.721C631.279 663.184 615.39 667.17 623.095 672.141C625.443 673.656 646.432 677.187 646.296 677.802C645.496 681.401 629.266 684.689 625.925 686.061C622.305 687.549 617.905 689.584 619.986 694.043C622.109 698.591 625.262 703.343 629.081 706.525" stroke="#FFDB58" stroke-width="22" stroke-linecap="round" stroke-linejoin="round"/>
<circle cx="600.938" cy="822.946" r="32.5" fill="#FFDB58"/>
<circle cx="837.438" cy="1042.45" r="29" fill="#FFDB58"/>
<circle cx="762.938" cy="453.946" r="24.5" fill="#FFDB58"/>
<path d="M609.13 67.8885C605.916 71.6873 578.76 108.903 569.59 103.663C566.146 101.695 595.839 47.383 598.371 40.4523C605.583 20.7142 577.407 41.8966 571.338 44.8905C565.606 47.7186 533.347 60.0772 533.816 59.55C541.225 51.2148 555.084 42.7131 558.965 31.8449C559.937 29.1239 525.274 37.9004 520.635 38.8384C505.811 41.8367 510.918 34.1985 516.063 23.91C523.294 9.44705 524.936 0.366556 519.559 -14.4199" stroke="#952B95" stroke-width="22" stroke-linecap="round" stroke-linejoin="round"/>
<path d="M432.409 217.98C432.221 230.952 429.988 243.806 429.988 256.714" stroke="#952B95" stroke-width="22" stroke-linecap="round" stroke-linejoin="round"/>
<path d="M309.855 759.559C322.92 755.652 335.234 750.63 347.141 743.933C350.375 742.113 355.309 739.983 357.425 736.809" stroke="#952B95" stroke-width="22" stroke-linecap="round" stroke-linejoin="round"/>
<path d="M720.266 609.022C744.691 598.387 769.44 588.934 794.972 581.274C795.788 581.029 812.034 574.435 804.818 580.241C784.662 596.458 760.62 606.493 740.371 622.242C738.38 623.791 735.86 626.382 740.027 626.855C751.691 628.181 764.347 626.038 775.899 624.583C786.363 623.265 796.694 621.405 807.09 619.763C813.386 618.769 795.513 625.134 789.532 627.337C778.087 631.554 770.085 634.442 758.548 639.042C748.004 643.246 734.201 647.336 724.879 654.328C717.893 659.567 757.737 661.96 760.338 662.039C766.891 662.239 773.73 662.216 780.306 662.039C782.204 661.988 791.909 660.323 793.939 661.902C794.935 662.677 791.751 663.191 790.565 663.623C786.654 665.045 782.812 666.295 779.48 668.925C756.126 687.35 803.354 694.224 814.044 695.227C822.704 696.039 820.317 695.139 831.808 695.777" stroke="white" stroke-width="22" stroke-linecap="round" stroke-linejoin="round"/>
<circle cx="569.938" cy="442.946" r="25.5" fill="#952B95"/>
<path d="M808.039 225.948C815.151 231.536 822.129 235.469 827.045 242.842" stroke="#952B95" stroke-width="22" stroke-linecap="round" stroke-linejoin="round"/>
</g>
<defs>
<clipPath id="clip0_249_5192">
<rect width="815" height="1024" fill="white"/>
</clipPath>
</defs>
</svg>
