<svg width="30" height="30" viewBox="0 0 30 30" fill="none" xmlns="http://www.w3.org/2000/svg">
<path d="M15 30C12.95 30 11.0125 29.606 9.1875 28.818C7.3625 28.031 5.769 26.956 4.407 25.593C3.044 24.231 1.969 22.6375 1.182 20.8125C0.394 18.9875 0 17.05 0 15C0 12.925 0.394 10.9815 1.182 9.1695C1.969 7.3565 3.044 5.769 4.407 4.407C5.769 3.044 7.3625 1.9685 9.1875 1.1805C11.0125 0.3935 12.95 0 15 0C17.075 0 19.0185 0.3935 20.8305 1.1805C22.6435 1.9685 24.231 3.044 25.593 4.407C26.956 5.769 28.031 7.3565 28.818 9.1695C29.606 10.9815 30 12.925 30 15C30 17.05 29.606 18.9875 28.818 20.8125C28.031 22.6375 26.956 24.231 25.593 25.593C24.231 26.956 22.6435 28.031 20.8305 28.818C19.0185 29.606 17.075 30 15 30ZM20.925 9H25.35C24.625 7.75 23.7185 6.6625 22.6305 5.7375C21.5435 4.8125 20.3 4.125 18.9 3.675C19.35 4.5 19.744 5.356 20.082 6.243C20.419 7.131 20.7 8.05 20.925 9ZM12.15 9H17.85C17.55 7.9 17.1625 6.8625 16.6875 5.8875C16.2125 4.9125 15.65 3.975 15 3.075C14.35 3.975 13.7875 4.9125 13.3125 5.8875C12.8375 6.8625 12.45 7.9 12.15 9ZM3.375 18H8.475C8.4 17.5 8.3435 17.006 8.3055 16.518C8.2685 16.031 8.25 15.525 8.25 15C8.25 14.475 8.2685 13.969 8.3055 13.482C8.3435 12.994 8.4 12.5 8.475 12H3.375C3.25 12.5 3.156 12.994 3.093 13.482C3.031 13.969 3 14.475 3 15C3 15.525 3.031 16.031 3.093 16.518C3.156 17.006 3.25 17.5 3.375 18ZM11.1 26.325C10.65 25.5 10.2565 24.6435 9.9195 23.7555C9.5815 22.8685 9.3 21.95 9.075 21H4.65C5.375 22.25 6.281 23.3375 7.368 24.2625C8.456 25.1875 9.7 25.875 11.1 26.325ZM4.65 9H9.075C9.3 8.05 9.5815 7.131 9.9195 6.243C10.2565 5.356 10.65 4.5 11.1 3.675C9.7 4.125 8.456 4.8125 7.368 5.7375C6.281 6.6625 5.375 7.75 4.65 9ZM15 26.925C15.65 26.025 16.2125 25.0875 16.6875 24.1125C17.1625 23.1375 17.55 22.1 17.85 21H12.15C12.45 22.1 12.8375 23.1375 13.3125 24.1125C13.7875 25.0875 14.35 26.025 15 26.925ZM11.475 18H18.525C18.6 17.5 18.6565 17.006 18.6945 16.518C18.7315 16.031 18.75 15.525 18.75 15C18.75 14.475 18.7315 13.969 18.6945 13.482C18.6565 12.994 18.6 12.5 18.525 12H11.475C11.4 12.5 11.344 12.994 11.307 13.482C11.269 13.969 11.25 14.475 11.25 15C11.25 15.525 11.269 16.031 11.307 16.518C11.344 17.006 11.4 17.5 11.475 18ZM18.9 26.325C20.3 25.875 21.5435 25.1875 22.6305 24.2625C23.7185 23.3375 24.625 22.25 25.35 21H20.925C20.7 21.95 20.419 22.8685 20.082 23.7555C19.744 24.6435 19.35 25.5 18.9 26.325ZM21.525 18H26.625C26.75 17.5 26.844 17.006 26.907 16.518C26.969 16.031 27 15.525 27 15C27 14.475 26.969 13.969 26.907 13.482C26.844 12.994 26.75 12.5 26.625 12H21.525C21.6 12.5 21.656 12.994 21.693 13.482C21.731 13.969 21.75 14.475 21.75 15C21.75 15.525 21.731 16.031 21.693 16.518C21.656 17.006 21.6 17.5 21.525 18Z" fill="black"/>
</svg>
