<svg width="36" height="37" viewBox="0 0 36 37" fill="none" xmlns="http://www.w3.org/2000/svg">
<path d="M9.95893 3.73828C9.29755 3.73828 8.66326 4.00101 8.19559 4.46868C7.72793 4.93634 7.4652 5.57064 7.4652 6.23201V10.1209H22.8148C24.2471 10.1209 25.4074 11.295 25.4074 12.7437V24.0095H29.398C29.7257 24.0097 30.0502 23.9452 30.353 23.8199C30.6558 23.6946 30.9309 23.5108 31.1627 23.2791C31.3944 23.0473 31.5782 22.7722 31.7035 22.4694C31.8288 22.1666 31.8932 21.8421 31.8931 21.5144V6.23201C31.8931 5.90442 31.8285 5.58003 31.7031 5.27739C31.5777 4.97474 31.3939 4.69978 31.1622 4.46819C30.9305 4.23661 30.6554 4.05295 30.3527 3.92771C30.05 3.80247 29.7256 3.7381 29.398 3.73828H9.95893ZM2.78807 10.8075C2.46036 10.8073 2.13583 10.8718 1.83303 10.9971C1.53022 11.1224 1.25509 11.3062 1.02337 11.5379C0.791638 11.7696 0.607857 12.0448 0.48253 12.3476C0.357203 12.6504 0.292789 12.9749 0.292969 13.3026V35.4455C0.292969 36.5578 1.63733 37.1139 2.42143 36.3271L7.56956 31.1803H22.2271C22.8885 31.1803 23.5228 30.9176 23.9904 30.4499C24.4581 29.9823 24.7208 29.348 24.7208 28.6866V13.3026C24.721 12.975 24.6566 12.6506 24.5314 12.3479C24.4062 12.0452 24.2225 11.7701 23.9909 11.5384C23.7593 11.3067 23.4844 11.1229 23.1817 10.9975C22.8791 10.8721 22.5547 10.8075 22.2271 10.8075H2.7867H2.78807Z" fill="#666667"/>
<circle cx="31.89" cy="3.73769" r="3.433" fill="#F90000"/>
</svg>
